<mxfile host="app.diagrams.net" agent="Mozilla/5.0 (Windows NT 10.0; Win64; x64) AppleWebKit/537.36 (KHTML, like Gecko) Chrome/135.0.0.0 Safari/537.36" version="26.2.14">
  <diagram name="Page-1" id="ZhRjAsxp6h8RQR0jwyz0">
    <mxGraphModel dx="1213" dy="730" grid="1" gridSize="10" guides="1" tooltips="1" connect="1" arrows="1" fold="1" page="1" pageScale="1" pageWidth="850" pageHeight="1100" math="0" shadow="0">
      <root>
        <mxCell id="0" />
        <mxCell id="1" parent="0" />
        <mxCell id="bfdjMvKEUoMtCTlxYdy_-11" value="" style="edgeStyle=orthogonalEdgeStyle;rounded=0;orthogonalLoop=1;jettySize=auto;html=1;" edge="1" parent="1" source="bfdjMvKEUoMtCTlxYdy_-1" target="bfdjMvKEUoMtCTlxYdy_-10">
          <mxGeometry relative="1" as="geometry" />
        </mxCell>
        <mxCell id="bfdjMvKEUoMtCTlxYdy_-1" value="Start" style="ellipse;whiteSpace=wrap;html=1;aspect=fixed;" vertex="1" parent="1">
          <mxGeometry x="40" y="130" width="80" height="80" as="geometry" />
        </mxCell>
        <mxCell id="bfdjMvKEUoMtCTlxYdy_-5" value="" style="edgeStyle=orthogonalEdgeStyle;rounded=0;orthogonalLoop=1;jettySize=auto;html=1;entryX=0;entryY=0.5;entryDx=0;entryDy=0;exitX=1;exitY=0.5;exitDx=0;exitDy=0;" edge="1" parent="1" source="bfdjMvKEUoMtCTlxYdy_-4" target="bfdjMvKEUoMtCTlxYdy_-2">
          <mxGeometry relative="1" as="geometry" />
        </mxCell>
        <mxCell id="bfdjMvKEUoMtCTlxYdy_-2" value="Send vehicle command for Armin" style="whiteSpace=wrap;html=1;" vertex="1" parent="1">
          <mxGeometry x="640" y="140" width="120" height="60" as="geometry" />
        </mxCell>
        <mxCell id="bfdjMvKEUoMtCTlxYdy_-6" style="edgeStyle=orthogonalEdgeStyle;rounded=0;orthogonalLoop=1;jettySize=auto;html=1;exitX=1;exitY=0.5;exitDx=0;exitDy=0;entryX=0.5;entryY=0;entryDx=0;entryDy=0;" edge="1" parent="1" source="bfdjMvKEUoMtCTlxYdy_-2" target="bfdjMvKEUoMtCTlxYdy_-27">
          <mxGeometry relative="1" as="geometry">
            <Array as="points">
              <mxPoint x="790" y="170" />
              <mxPoint x="790" y="110" />
              <mxPoint x="398" y="110" />
            </Array>
          </mxGeometry>
        </mxCell>
        <mxCell id="bfdjMvKEUoMtCTlxYdy_-7" value="Repeat after 250 milliseconds" style="edgeLabel;html=1;align=center;verticalAlign=middle;resizable=0;points=[];fontSize=12;fontStyle=1" vertex="1" connectable="0" parent="bfdjMvKEUoMtCTlxYdy_-6">
          <mxGeometry x="0.0559" y="-1" relative="1" as="geometry">
            <mxPoint x="-16" as="offset" />
          </mxGeometry>
        </mxCell>
        <mxCell id="bfdjMvKEUoMtCTlxYdy_-4" value="Send offboard control mode command" style="whiteSpace=wrap;html=1;" vertex="1" parent="1">
          <mxGeometry x="490" y="140" width="120" height="60" as="geometry" />
        </mxCell>
        <mxCell id="bfdjMvKEUoMtCTlxYdy_-15" value="" style="edgeStyle=orthogonalEdgeStyle;rounded=0;orthogonalLoop=1;jettySize=auto;html=1;entryX=0;entryY=0.5;entryDx=0;entryDy=0;" edge="1" parent="1" source="bfdjMvKEUoMtCTlxYdy_-10" target="bfdjMvKEUoMtCTlxYdy_-27">
          <mxGeometry relative="1" as="geometry">
            <mxPoint x="390" y="170" as="targetPoint" />
          </mxGeometry>
        </mxCell>
        <mxCell id="bfdjMvKEUoMtCTlxYdy_-19" value="Yes" style="edgeLabel;html=1;align=center;verticalAlign=middle;resizable=0;points=[];fontSize=12;fontStyle=1" vertex="1" connectable="0" parent="bfdjMvKEUoMtCTlxYdy_-15">
          <mxGeometry x="-0.1889" y="-1" relative="1" as="geometry">
            <mxPoint as="offset" />
          </mxGeometry>
        </mxCell>
        <mxCell id="bfdjMvKEUoMtCTlxYdy_-23" style="edgeStyle=orthogonalEdgeStyle;rounded=0;orthogonalLoop=1;jettySize=auto;html=1;exitX=1;exitY=1;exitDx=0;exitDy=0;entryX=0.75;entryY=0;entryDx=0;entryDy=0;" edge="1" parent="1" source="bfdjMvKEUoMtCTlxYdy_-10" target="bfdjMvKEUoMtCTlxYdy_-21">
          <mxGeometry relative="1" as="geometry" />
        </mxCell>
        <mxCell id="bfdjMvKEUoMtCTlxYdy_-25" value="No" style="edgeLabel;html=1;align=center;verticalAlign=middle;resizable=0;points=[];fontSize=12;fontStyle=1" vertex="1" connectable="0" parent="bfdjMvKEUoMtCTlxYdy_-23">
          <mxGeometry x="-0.1339" relative="1" as="geometry">
            <mxPoint y="-3" as="offset" />
          </mxGeometry>
        </mxCell>
        <mxCell id="bfdjMvKEUoMtCTlxYdy_-10" value="Check if the control &lt;br&gt;mode is offboard" style="rhombus;whiteSpace=wrap;html=1;" vertex="1" parent="1">
          <mxGeometry x="150" y="130" width="150" height="80" as="geometry" />
        </mxCell>
        <mxCell id="bfdjMvKEUoMtCTlxYdy_-24" style="edgeStyle=orthogonalEdgeStyle;rounded=0;orthogonalLoop=1;jettySize=auto;html=1;exitX=0.25;exitY=0;exitDx=0;exitDy=0;entryX=0;entryY=1;entryDx=0;entryDy=0;" edge="1" parent="1" source="bfdjMvKEUoMtCTlxYdy_-21" target="bfdjMvKEUoMtCTlxYdy_-10">
          <mxGeometry relative="1" as="geometry" />
        </mxCell>
        <mxCell id="bfdjMvKEUoMtCTlxYdy_-21" value="Publish vehicle command for changing mode to offboard" style="whiteSpace=wrap;html=1;" vertex="1" parent="1">
          <mxGeometry x="162.5" y="250" width="125" height="60" as="geometry" />
        </mxCell>
        <mxCell id="bfdjMvKEUoMtCTlxYdy_-28" style="edgeStyle=orthogonalEdgeStyle;rounded=0;orthogonalLoop=1;jettySize=auto;html=1;exitX=1;exitY=0.5;exitDx=0;exitDy=0;entryX=0;entryY=0.5;entryDx=0;entryDy=0;" edge="1" parent="1" source="bfdjMvKEUoMtCTlxYdy_-27" target="bfdjMvKEUoMtCTlxYdy_-4">
          <mxGeometry relative="1" as="geometry" />
        </mxCell>
        <mxCell id="bfdjMvKEUoMtCTlxYdy_-29" value="Yes" style="edgeLabel;html=1;align=center;verticalAlign=middle;resizable=0;points=[];" vertex="1" connectable="0" parent="bfdjMvKEUoMtCTlxYdy_-28">
          <mxGeometry x="-0.0667" y="-1" relative="1" as="geometry">
            <mxPoint x="-6" y="-1" as="offset" />
          </mxGeometry>
        </mxCell>
        <mxCell id="bfdjMvKEUoMtCTlxYdy_-31" value="" style="edgeStyle=orthogonalEdgeStyle;rounded=0;orthogonalLoop=1;jettySize=auto;html=1;" edge="1" parent="1" source="bfdjMvKEUoMtCTlxYdy_-27" target="bfdjMvKEUoMtCTlxYdy_-30">
          <mxGeometry relative="1" as="geometry" />
        </mxCell>
        <mxCell id="bfdjMvKEUoMtCTlxYdy_-27" value="Are turnon &lt;br&gt;enabled?" style="rhombus;whiteSpace=wrap;html=1;" vertex="1" parent="1">
          <mxGeometry x="350" y="140" width="95" height="60" as="geometry" />
        </mxCell>
        <mxCell id="bfdjMvKEUoMtCTlxYdy_-30" value="Stop" style="ellipse;whiteSpace=wrap;html=1;" vertex="1" parent="1">
          <mxGeometry x="357.5" y="230" width="80" height="80" as="geometry" />
        </mxCell>
      </root>
    </mxGraphModel>
  </diagram>
</mxfile>
